<svg xmlns="http://www.w3.org/2000/svg" viewBox="0 0 198.37 121.22"><defs><style>.cls-1{fill:#fff;}.cls-2{fill:#58595b;}</style></defs><g id="Layer_2" data-name="Layer 2"><g id="Layer_1-2" data-name="Layer 1"><path class="cls-1" d="M3.65,106H8.39c2.93,0,5.13,1.09,5.13,4,0,4.18-3.14,5.8-6.91,5.8H4.84l-1,5.21H.65Zm3.29,7.29c2.23,0,3.47-1,3.47-2.85,0-1.35-.92-2-2.51-2H6.29l-.94,4.8Z" transform="translate(-0.65)"/><path class="cls-1" d="M17.06,106h3.15L19,111.78h5.12L25.29,106h3.16l-3,15H22.3l1.29-6.41H18.48L17.22,121H14.06Z" transform="translate(-0.65)"/><path class="cls-1" d="M32.06,106h3.15l-3,15H29.06Z" transform="translate(-0.65)"/><path class="cls-1" d="M38.82,106H42L39.49,118.3h5.69L44.66,121H35.82Z" transform="translate(-0.65)"/><path class="cls-1" d="M50.32,106h3.15l-3,15H47.32Z" transform="translate(-0.65)"/><path class="cls-1" d="M57.08,106h4.74c2.93,0,5.13,1.09,5.13,4,0,4.18-3.14,5.8-6.91,5.8H58.27l-1,5.21H54.08Zm3.29,7.29c2.23,0,3.46-1,3.46-2.85,0-1.35-.91-2-2.5-2H59.72l-.94,4.8Z" transform="translate(-0.65)"/><path class="cls-1" d="M70.49,106h4.73c2.93,0,5.14,1.09,5.14,4,0,4.18-3.14,5.8-6.92,5.8H71.68l-1,5.21H67.49Zm3.29,7.29c2.23,0,3.46-1,3.46-2.85,0-1.35-.91-2-2.5-2H73.13l-.94,4.8Z" transform="translate(-0.65)"/><path class="cls-1" d="M83.9,106h8.89l-.52,2.64H86.5l-.64,3.26h4.9l-.52,2.64H85.35l-.79,3.8h6L90,121H80.9Z" transform="translate(-0.65)"/><path class="cls-1" d="M97,118.41l2.26-1.77a4.19,4.19,0,0,0,3.34,1.9c1.27,0,2.16-.66,2.16-1.74,0-.79-.69-1.2-1.75-1.85l-1.42-.87a4.15,4.15,0,0,1-2.24-3.75c0-2.57,2.33-4.65,5.27-4.65a6,6,0,0,1,4.54,2.27l-2,1.86a3.71,3.71,0,0,0-2.69-1.41,1.69,1.69,0,0,0-1.91,1.61c0,.77.7,1.15,1.87,1.88l1.49.9a3.69,3.69,0,0,1,2.08,3.56c0,2.73-2.22,4.87-5.67,4.87A6.43,6.43,0,0,1,97,118.41Z" transform="translate(-0.65)"/><path class="cls-1" d="M110.4,114.88c0-5.29,3.56-9.2,7.62-9.2,3.43,0,5.63,2.36,5.63,6.34,0,5.3-3.56,9.2-7.62,9.2C112.61,121.22,110.4,118.87,110.4,114.88Zm10-2.65c0-2.38-.9-3.83-2.57-3.83-2.13,0-4.23,2.8-4.23,6.28,0,2.38.9,3.82,2.56,3.82C118.32,118.5,120.43,115.7,120.43,112.23Z" transform="translate(-0.65)"/><path class="cls-1" d="M127.84,106H131l-1.64,8.21a9.93,9.93,0,0,0-.19,1.73c0,1.7.59,2.6,2.27,2.6,1.45,0,2.39-1.08,2.93-3.86l1.75-8.68h3.07l-1.75,8.64c-.9,4.59-2.88,6.62-6.09,6.62-3.54,0-5.34-1.68-5.34-5.21a15.54,15.54,0,0,1,.3-2.41Z" transform="translate(-0.65)"/><path class="cls-1" d="M142.71,106h4.57c3,0,5.05,1.05,5.05,3.42a4.07,4.07,0,0,1-3.26,3.74l0,.09c1.66.4,2.59,1.33,2.59,2.81,0,3.52-3,4.93-6.49,4.93h-5.43Zm2.59,12.57c2.12,0,3.29-.84,3.29-2.38,0-1.23-.8-1.92-2.42-1.92h-2l-.86,4.3Zm.83-6.45c2.1,0,3-.86,3-2.17,0-1-.74-1.53-2.38-1.53h-1.34l-.75,3.7Z" transform="translate(-0.65)"/><path class="cls-1" d="M156.6,106h4.7c2.94,0,5.13,1,5.13,3.83,0,3.93-3.19,5.66-6.69,5.66h-1.9l-1.08,5.5H153.6Zm3.35,7c2.23,0,3.37-1.07,3.37-2.69,0-1.26-.89-1.81-2.51-1.81h-1.57l-.88,4.5Zm-.52,1.77,2.27-2,3.24,8.25h-3.32Z" transform="translate(-0.65)"/><path class="cls-1" d="M170.31,106h3.15l-3,15h-3.15Z" transform="translate(-0.65)"/><path class="cls-1" d="M177.07,106H186l-.52,2.64h-5.77l-.64,3.26h4.9l-.52,2.64h-4.89l-.78,3.8h6l-.52,2.65h-9.11Z" transform="translate(-0.65)"/><path class="cls-1" d="M189.19,106h4.7c2.94,0,5.13,1,5.13,3.83,0,3.93-3.19,5.66-6.69,5.66h-1.9l-1.08,5.5h-3.16Zm3.35,7c2.23,0,3.37-1.07,3.37-2.69,0-1.26-.89-1.81-2.51-1.81h-1.57L191,113Zm-.52,1.77,2.27-2,3.24,8.25h-3.32Z" transform="translate(-0.65)"/><path class="cls-1" d="M36.79,78.74h8.89l-.52,2.64H39.39l-.72,3.68h4.89l-.51,2.65H38.16l-1.21,6H33.79Z" transform="translate(-0.65)"/><path class="cls-1" d="M48.38,78.74h3.15L49.05,91.08h5.69l-.52,2.64H45.38Z" transform="translate(-0.65)"/><path class="cls-1" d="M58.53,78.74h3.16L60,87a11,11,0,0,0-.19,1.73c0,1.7.6,2.6,2.28,2.6,1.45,0,2.38-1.08,2.93-3.86l1.74-8.68h3.08l-1.75,8.63C67.23,92,65.25,94,62,94c-3.54,0-5.34-1.68-5.34-5.21a15.81,15.81,0,0,1,.3-2.42Z" transform="translate(-0.65)"/><path class="cls-1" d="M73.41,78.74h4.73c2.93,0,5.14,1.09,5.14,4,0,4.18-3.14,5.8-6.92,5.8H74.59l-1,5.2H70.41ZM76.7,86c2.22,0,3.46-1,3.46-2.85,0-1.35-.91-2-2.51-2H76L75.11,86Z" transform="translate(-0.65)"/><path class="cls-1" d="M86.82,78.74H90L88.74,84.9h.08l5.64-6.16h3.45L92.46,84.9l3.34,8.82H92.53l-2.4-6.84-2.27,2.45L87,93.72H83.82Z" transform="translate(-0.65)"/><path class="cls-1" d="M100.71,78.74h8.88l-.51,2.64H103.3l-.63,3.25h4.9l-.52,2.65h-4.89l-.79,3.8h6l-.51,2.64H97.71Z" transform="translate(-0.65)"/><polygon class="cls-2" points="33.57 38.02 39.04 38.02 41.53 23.9 81.8 23.9 85.07 5.39 80.55 0 77.28 18.52 37.01 18.52 33.57 38.02"/><path class="cls-2" d="M73.55,43.41l-.65,3.66A18,18,0,0,1,55.22,61.92H35.49l-5.6,31.76-.95,5.38H10.13L5.62,93.68h18.8L30,61.92,31,56.54H54.75A13.13,13.13,0,0,0,67.68,45.68L69,38Z" transform="translate(-0.65)"/><path class="cls-1" d="M36.72,23.9,34.23,38H69l-1.35,7.66A13.13,13.13,0,0,1,54.75,56.54H31L30,61.92l-5.6,31.76H5.62l5.16-29.34h7a3.89,3.89,0,0,0,3.84-3.22l1.44-8.18a1,1,0,0,0,0-.17,4.6,4.6,0,1,0-2.28-.4,1,1,0,0,0-.05.16l-1.44,8.18A1.55,1.55,0,0,1,17.78,62H11.2v-.08l.95-5.38L15.43,38,17.92,23.9l.95-5.38L20,12.32h0L34.63,0H81.21L77.94,18.52H37.67Z" transform="translate(-0.65)"/><path class="cls-1" d="M25,48.18a2.26,2.26,0,1,0-2.26,2.26A2.26,2.26,0,0,0,25,48.18Z" transform="translate(-0.65)"/></g></g></svg>