<svg xmlns="http://www.w3.org/2000/svg" viewBox="0 0 80.11 99.06"><defs><style>.cls-1{fill:#58595b;}.cls-2{fill:#fff;}</style></defs><g id="Layer_2" data-name="Layer 2"><g id="Layer_1-2" data-name="Layer 1"><polygon class="cls-1" points="28.61 38.02 34.08 38.02 36.57 23.9 76.84 23.9 80.11 5.39 75.59 0 72.32 18.52 32.05 18.52 28.61 38.02"/><path class="cls-1" d="M67.93,43.41l-.65,3.66A18,18,0,0,1,49.6,61.92H29.87l-5.6,31.76-.95,5.38H4.51L0,93.68H18.8l5.6-31.76,1-5.38H49.13A13.13,13.13,0,0,0,62.06,45.68L63.41,38Z"/><path class="cls-2" d="M31.1,23.9,28.61,38h34.8l-1.35,7.66A13.13,13.13,0,0,1,49.13,56.54H25.35l-1,5.38L18.8,93.68H0L5.16,64.34h7A3.89,3.89,0,0,0,16,61.12l1.44-8.18a1,1,0,0,0,0-.17,4.6,4.6,0,1,0-2.28-.4,1,1,0,0,0,0,.16l-1.44,8.18A1.55,1.55,0,0,1,12.16,62H5.58v-.08l1-5.38L9.81,38,12.3,23.9l.95-5.38,1.09-6.2h0L29,0H75.59L72.32,18.52H32.05Z"/><path class="cls-2" d="M19.35,48.18a2.26,2.26,0,1,0-2.26,2.26A2.26,2.26,0,0,0,19.35,48.18Z"/></g></g></svg>